<mxfile host="app.diagrams.net" agent="Mozilla/5.0 (Windows NT 10.0; Win64; x64) AppleWebKit/537.36 (KHTML, like Gecko) Chrome/131.0.0.0 Safari/537.36 Edg/131.0.0.0" version="24.8.3">
  <diagram name="Page-1" id="dynuYBLnc_7g-2DghAgq">
    <mxGraphModel dx="1895" dy="1031" grid="1" gridSize="10" guides="1" tooltips="1" connect="1" arrows="1" fold="1" page="1" pageScale="1" pageWidth="827" pageHeight="1169" math="0" shadow="0">
      <root>
        <mxCell id="0" />
        <mxCell id="1" parent="0" />
        <mxCell id="n8brzZh167pFlXIu-bxO-152" value="&lt;div&gt;&lt;br&gt;&lt;/div&gt;" style="rounded=0;whiteSpace=wrap;html=1;" vertex="1" parent="1">
          <mxGeometry x="450" y="2000" width="570" height="410" as="geometry" />
        </mxCell>
        <mxCell id="n8brzZh167pFlXIu-bxO-62" value="TypeQuest - Business Process Diagram" style="swimlane;childLayout=stackLayout;resizeParent=1;resizeParentMax=0;horizontal=0;startSize=20;horizontalStack=0;html=1;" vertex="1" parent="1">
          <mxGeometry x="40" y="810" width="1170" height="510" as="geometry" />
        </mxCell>
        <mxCell id="n8brzZh167pFlXIu-bxO-63" value="User" style="swimlane;startSize=20;horizontal=0;html=1;" vertex="1" parent="n8brzZh167pFlXIu-bxO-62">
          <mxGeometry x="20" width="1150" height="210" as="geometry" />
        </mxCell>
        <mxCell id="n8brzZh167pFlXIu-bxO-73" style="edgeStyle=orthogonalEdgeStyle;rounded=0;orthogonalLoop=1;jettySize=auto;html=1;entryX=0;entryY=0.5;entryDx=0;entryDy=0;" edge="1" parent="n8brzZh167pFlXIu-bxO-63" source="n8brzZh167pFlXIu-bxO-66" target="n8brzZh167pFlXIu-bxO-68">
          <mxGeometry relative="1" as="geometry" />
        </mxCell>
        <mxCell id="n8brzZh167pFlXIu-bxO-66" value="&lt;div&gt;&lt;br&gt;&lt;/div&gt;&lt;div&gt;&lt;br&gt;&lt;/div&gt;&lt;div&gt;&lt;br&gt;&lt;/div&gt;&lt;div&gt;&lt;br&gt;&lt;/div&gt;&lt;div&gt;Start&lt;/div&gt;" style="ellipse;whiteSpace=wrap;html=1;aspect=fixed;perimeterSpacing=0;" vertex="1" parent="n8brzZh167pFlXIu-bxO-63">
          <mxGeometry x="50" y="79" width="30" height="30" as="geometry" />
        </mxCell>
        <mxCell id="n8brzZh167pFlXIu-bxO-70" value="" style="group" vertex="1" connectable="0" parent="n8brzZh167pFlXIu-bxO-63">
          <mxGeometry x="128.5" y="54" width="80" height="80" as="geometry" />
        </mxCell>
        <mxCell id="n8brzZh167pFlXIu-bxO-68" value="" style="rhombus;whiteSpace=wrap;html=1;" vertex="1" parent="n8brzZh167pFlXIu-bxO-70">
          <mxGeometry width="80" height="80" as="geometry" />
        </mxCell>
        <mxCell id="n8brzZh167pFlXIu-bxO-69" value="" style="verticalLabelPosition=bottom;verticalAlign=top;html=1;shape=mxgraph.basic.x" vertex="1" parent="n8brzZh167pFlXIu-bxO-70">
          <mxGeometry x="25" y="25" width="30" height="30" as="geometry" />
        </mxCell>
        <mxCell id="n8brzZh167pFlXIu-bxO-74" value="End" style="points=[[0.145,0.145,0],[0.5,0,0],[0.855,0.145,0],[1,0.5,0],[0.855,0.855,0],[0.5,1,0],[0.145,0.855,0],[0,0.5,0]];shape=mxgraph.bpmn.event;html=1;verticalLabelPosition=bottom;labelBackgroundColor=#ffffff;verticalAlign=top;align=center;perimeter=ellipsePerimeter;outlineConnect=0;aspect=fixed;outline=end;symbol=terminate2;" vertex="1" parent="n8brzZh167pFlXIu-bxO-63">
          <mxGeometry x="490" y="79" width="30" height="30" as="geometry" />
        </mxCell>
        <mxCell id="n8brzZh167pFlXIu-bxO-75" style="edgeStyle=orthogonalEdgeStyle;rounded=0;orthogonalLoop=1;jettySize=auto;html=1;entryX=0;entryY=0.5;entryDx=0;entryDy=0;entryPerimeter=0;" edge="1" parent="n8brzZh167pFlXIu-bxO-63" source="n8brzZh167pFlXIu-bxO-68" target="n8brzZh167pFlXIu-bxO-74">
          <mxGeometry relative="1" as="geometry" />
        </mxCell>
        <mxCell id="n8brzZh167pFlXIu-bxO-76" value="User has not submitted form" style="edgeLabel;html=1;align=center;verticalAlign=middle;resizable=0;points=[];" vertex="1" connectable="0" parent="n8brzZh167pFlXIu-bxO-75">
          <mxGeometry x="-0.807" y="3" relative="1" as="geometry">
            <mxPoint x="91" y="-7" as="offset" />
          </mxGeometry>
        </mxCell>
        <mxCell id="n8brzZh167pFlXIu-bxO-64" value="System" style="swimlane;startSize=20;horizontal=0;html=1;" vertex="1" parent="n8brzZh167pFlXIu-bxO-62">
          <mxGeometry x="20" y="210" width="1150" height="300" as="geometry" />
        </mxCell>
        <mxCell id="n8brzZh167pFlXIu-bxO-142" style="edgeStyle=orthogonalEdgeStyle;rounded=0;orthogonalLoop=1;jettySize=auto;html=1;entryX=0;entryY=0.5;entryDx=0;entryDy=0;" edge="1" parent="n8brzZh167pFlXIu-bxO-64" source="n8brzZh167pFlXIu-bxO-120" target="n8brzZh167pFlXIu-bxO-140">
          <mxGeometry relative="1" as="geometry" />
        </mxCell>
        <mxCell id="n8brzZh167pFlXIu-bxO-120" value="&lt;div&gt;Process user inputs&lt;/div&gt;&lt;div&gt;&lt;br&gt;&lt;/div&gt;&lt;div&gt;[+]&lt;/div&gt;" style="rounded=1;whiteSpace=wrap;html=1;" vertex="1" parent="n8brzZh167pFlXIu-bxO-64">
          <mxGeometry x="558.5" y="80" width="120" height="60" as="geometry" />
        </mxCell>
        <mxCell id="n8brzZh167pFlXIu-bxO-123" value="Output results" style="rounded=1;whiteSpace=wrap;html=1;" vertex="1" parent="n8brzZh167pFlXIu-bxO-64">
          <mxGeometry x="928.5" y="80" width="120" height="60" as="geometry" />
        </mxCell>
        <mxCell id="n8brzZh167pFlXIu-bxO-125" value="End" style="points=[[0.145,0.145,0],[0.5,0,0],[0.855,0.145,0],[1,0.5,0],[0.855,0.855,0],[0.5,1,0],[0.145,0.855,0],[0,0.5,0]];shape=mxgraph.bpmn.event;html=1;verticalLabelPosition=bottom;labelBackgroundColor=#ffffff;verticalAlign=top;align=center;perimeter=ellipsePerimeter;outlineConnect=0;aspect=fixed;outline=end;symbol=terminate2;" vertex="1" parent="n8brzZh167pFlXIu-bxO-64">
          <mxGeometry x="1100" y="230" width="30" height="30" as="geometry" />
        </mxCell>
        <mxCell id="n8brzZh167pFlXIu-bxO-126" style="edgeStyle=orthogonalEdgeStyle;rounded=0;orthogonalLoop=1;jettySize=auto;html=1;entryX=0.5;entryY=0;entryDx=0;entryDy=0;entryPerimeter=0;" edge="1" parent="n8brzZh167pFlXIu-bxO-64" source="n8brzZh167pFlXIu-bxO-123" target="n8brzZh167pFlXIu-bxO-125">
          <mxGeometry relative="1" as="geometry" />
        </mxCell>
        <mxCell id="n8brzZh167pFlXIu-bxO-132" style="edgeStyle=orthogonalEdgeStyle;rounded=0;orthogonalLoop=1;jettySize=auto;html=1;entryX=0;entryY=0.5;entryDx=0;entryDy=0;" edge="1" parent="n8brzZh167pFlXIu-bxO-64" source="n8brzZh167pFlXIu-bxO-128" target="n8brzZh167pFlXIu-bxO-130">
          <mxGeometry relative="1" as="geometry" />
        </mxCell>
        <mxCell id="n8brzZh167pFlXIu-bxO-128" value="Validate user input" style="rounded=1;whiteSpace=wrap;html=1;" vertex="1" parent="n8brzZh167pFlXIu-bxO-64">
          <mxGeometry x="191" y="80" width="120" height="60" as="geometry" />
        </mxCell>
        <mxCell id="n8brzZh167pFlXIu-bxO-129" value="" style="group" vertex="1" connectable="0" parent="n8brzZh167pFlXIu-bxO-64">
          <mxGeometry x="354" y="70" width="80" height="80" as="geometry" />
        </mxCell>
        <mxCell id="n8brzZh167pFlXIu-bxO-130" value="" style="rhombus;whiteSpace=wrap;html=1;" vertex="1" parent="n8brzZh167pFlXIu-bxO-129">
          <mxGeometry width="80" height="80" as="geometry" />
        </mxCell>
        <mxCell id="n8brzZh167pFlXIu-bxO-131" value="" style="verticalLabelPosition=bottom;verticalAlign=top;html=1;shape=mxgraph.basic.x" vertex="1" parent="n8brzZh167pFlXIu-bxO-129">
          <mxGeometry x="25" y="25" width="30" height="30" as="geometry" />
        </mxCell>
        <mxCell id="n8brzZh167pFlXIu-bxO-134" value="End" style="points=[[0.145,0.145,0],[0.5,0,0],[0.855,0.145,0],[1,0.5,0],[0.855,0.855,0],[0.5,1,0],[0.145,0.855,0],[0,0.5,0]];shape=mxgraph.bpmn.event;html=1;verticalLabelPosition=bottom;labelBackgroundColor=#ffffff;verticalAlign=top;align=center;perimeter=ellipsePerimeter;outlineConnect=0;aspect=fixed;outline=end;symbol=terminate2;" vertex="1" parent="n8brzZh167pFlXIu-bxO-64">
          <mxGeometry x="379" y="230" width="30" height="30" as="geometry" />
        </mxCell>
        <mxCell id="n8brzZh167pFlXIu-bxO-135" style="edgeStyle=orthogonalEdgeStyle;rounded=0;orthogonalLoop=1;jettySize=auto;html=1;entryX=0.5;entryY=0;entryDx=0;entryDy=0;entryPerimeter=0;" edge="1" parent="n8brzZh167pFlXIu-bxO-64" source="n8brzZh167pFlXIu-bxO-130" target="n8brzZh167pFlXIu-bxO-134">
          <mxGeometry relative="1" as="geometry" />
        </mxCell>
        <mxCell id="n8brzZh167pFlXIu-bxO-136" value="Input Not ok" style="edgeLabel;html=1;align=center;verticalAlign=middle;resizable=0;points=[];" vertex="1" connectable="0" parent="n8brzZh167pFlXIu-bxO-135">
          <mxGeometry x="-0.3167" y="2" relative="1" as="geometry">
            <mxPoint as="offset" />
          </mxGeometry>
        </mxCell>
        <mxCell id="n8brzZh167pFlXIu-bxO-137" style="edgeStyle=orthogonalEdgeStyle;rounded=0;orthogonalLoop=1;jettySize=auto;html=1;entryX=0;entryY=0.5;entryDx=0;entryDy=0;" edge="1" parent="n8brzZh167pFlXIu-bxO-64" source="n8brzZh167pFlXIu-bxO-130" target="n8brzZh167pFlXIu-bxO-120">
          <mxGeometry relative="1" as="geometry" />
        </mxCell>
        <mxCell id="n8brzZh167pFlXIu-bxO-138" value="Input is ok" style="edgeLabel;html=1;align=center;verticalAlign=middle;resizable=0;points=[];" vertex="1" connectable="0" parent="n8brzZh167pFlXIu-bxO-137">
          <mxGeometry x="-0.5319" y="-2" relative="1" as="geometry">
            <mxPoint x="20" y="-16" as="offset" />
          </mxGeometry>
        </mxCell>
        <mxCell id="n8brzZh167pFlXIu-bxO-139" value="" style="group" vertex="1" connectable="0" parent="n8brzZh167pFlXIu-bxO-64">
          <mxGeometry x="767" y="70" width="80" height="80" as="geometry" />
        </mxCell>
        <mxCell id="n8brzZh167pFlXIu-bxO-140" value="" style="rhombus;whiteSpace=wrap;html=1;" vertex="1" parent="n8brzZh167pFlXIu-bxO-139">
          <mxGeometry width="80" height="80" as="geometry" />
        </mxCell>
        <mxCell id="n8brzZh167pFlXIu-bxO-141" value="" style="verticalLabelPosition=bottom;verticalAlign=top;html=1;shape=mxgraph.basic.x" vertex="1" parent="n8brzZh167pFlXIu-bxO-139">
          <mxGeometry x="25" y="25" width="30" height="30" as="geometry" />
        </mxCell>
        <mxCell id="n8brzZh167pFlXIu-bxO-143" style="edgeStyle=orthogonalEdgeStyle;rounded=0;orthogonalLoop=1;jettySize=auto;html=1;entryX=0;entryY=0.5;entryDx=0;entryDy=0;" edge="1" parent="n8brzZh167pFlXIu-bxO-64" source="n8brzZh167pFlXIu-bxO-140" target="n8brzZh167pFlXIu-bxO-123">
          <mxGeometry relative="1" as="geometry" />
        </mxCell>
        <mxCell id="n8brzZh167pFlXIu-bxO-148" value="&lt;div&gt;Processing&lt;/div&gt;Successful" style="edgeLabel;html=1;align=center;verticalAlign=middle;resizable=0;points=[];" vertex="1" connectable="0" parent="n8brzZh167pFlXIu-bxO-143">
          <mxGeometry x="-0.1937" relative="1" as="geometry">
            <mxPoint x="3" y="-20" as="offset" />
          </mxGeometry>
        </mxCell>
        <mxCell id="n8brzZh167pFlXIu-bxO-145" value="Output Error" style="rounded=1;whiteSpace=wrap;html=1;" vertex="1" parent="n8brzZh167pFlXIu-bxO-64">
          <mxGeometry x="928.5" y="215" width="120" height="60" as="geometry" />
        </mxCell>
        <mxCell id="n8brzZh167pFlXIu-bxO-146" style="edgeStyle=orthogonalEdgeStyle;rounded=0;orthogonalLoop=1;jettySize=auto;html=1;entryX=0;entryY=0.5;entryDx=0;entryDy=0;" edge="1" parent="n8brzZh167pFlXIu-bxO-64" source="n8brzZh167pFlXIu-bxO-140" target="n8brzZh167pFlXIu-bxO-145">
          <mxGeometry relative="1" as="geometry">
            <Array as="points">
              <mxPoint x="807" y="245" />
            </Array>
          </mxGeometry>
        </mxCell>
        <mxCell id="n8brzZh167pFlXIu-bxO-149" value="Processing was&amp;nbsp;&lt;div&gt;Unsuccessful&lt;/div&gt;" style="edgeLabel;html=1;align=center;verticalAlign=middle;resizable=0;points=[];" vertex="1" connectable="0" parent="n8brzZh167pFlXIu-bxO-146">
          <mxGeometry x="0.2867" y="2" relative="1" as="geometry">
            <mxPoint x="11" y="-20" as="offset" />
          </mxGeometry>
        </mxCell>
        <mxCell id="n8brzZh167pFlXIu-bxO-147" style="edgeStyle=orthogonalEdgeStyle;rounded=0;orthogonalLoop=1;jettySize=auto;html=1;entryX=0;entryY=0.5;entryDx=0;entryDy=0;entryPerimeter=0;" edge="1" parent="n8brzZh167pFlXIu-bxO-64" source="n8brzZh167pFlXIu-bxO-145" target="n8brzZh167pFlXIu-bxO-125">
          <mxGeometry relative="1" as="geometry" />
        </mxCell>
        <mxCell id="n8brzZh167pFlXIu-bxO-121" style="edgeStyle=orthogonalEdgeStyle;rounded=0;orthogonalLoop=1;jettySize=auto;html=1;entryX=0;entryY=0.5;entryDx=0;entryDy=0;" edge="1" parent="n8brzZh167pFlXIu-bxO-62" source="n8brzZh167pFlXIu-bxO-68" target="n8brzZh167pFlXIu-bxO-128">
          <mxGeometry relative="1" as="geometry">
            <mxPoint x="180" y="340" as="targetPoint" />
          </mxGeometry>
        </mxCell>
        <mxCell id="n8brzZh167pFlXIu-bxO-122" value="User&amp;nbsp;&lt;div&gt;submitted&amp;nbsp;&lt;div&gt;form&lt;/div&gt;&lt;/div&gt;" style="edgeLabel;html=1;align=center;verticalAlign=middle;resizable=0;points=[];" vertex="1" connectable="0" parent="n8brzZh167pFlXIu-bxO-121">
          <mxGeometry x="-0.7794" y="-1" relative="1" as="geometry">
            <mxPoint y="20" as="offset" />
          </mxGeometry>
        </mxCell>
        <mxCell id="n8brzZh167pFlXIu-bxO-78" value="" style="group" vertex="1" connectable="0" parent="1">
          <mxGeometry x="349" y="1400" width="660" height="500" as="geometry" />
        </mxCell>
        <mxCell id="n8brzZh167pFlXIu-bxO-79" value="&lt;div&gt;[Process User Inputs Expanded]&lt;/div&gt;&lt;div&gt;&lt;br&gt;&lt;/div&gt;&lt;div&gt;&lt;br&gt;&lt;/div&gt;&lt;div&gt;&lt;br&gt;&lt;/div&gt;&lt;div&gt;&lt;br&gt;&lt;/div&gt;&lt;div&gt;&lt;br&gt;&lt;/div&gt;&lt;div&gt;&lt;br&gt;&lt;/div&gt;&lt;div&gt;&lt;br&gt;&lt;/div&gt;&lt;div&gt;&lt;br&gt;&lt;/div&gt;&lt;div&gt;&lt;br&gt;&lt;/div&gt;&lt;div&gt;&lt;br&gt;&lt;/div&gt;&lt;div&gt;&lt;br&gt;&lt;/div&gt;&lt;div&gt;&lt;br&gt;&lt;/div&gt;&lt;div&gt;&lt;br&gt;&lt;/div&gt;&lt;div&gt;&lt;br&gt;&lt;/div&gt;&lt;div&gt;&lt;br&gt;&lt;/div&gt;&lt;div&gt;&lt;br&gt;&lt;/div&gt;&lt;div&gt;&lt;br&gt;&lt;/div&gt;&lt;div&gt;&lt;br&gt;&lt;/div&gt;&lt;div&gt;&lt;br&gt;&lt;/div&gt;&lt;div&gt;&lt;br&gt;&lt;/div&gt;&lt;div&gt;&lt;br&gt;&lt;/div&gt;&lt;div&gt;&lt;br&gt;&lt;/div&gt;&lt;div&gt;&lt;br&gt;&lt;/div&gt;&lt;div&gt;&lt;br&gt;&lt;/div&gt;&lt;div&gt;&lt;br&gt;&lt;/div&gt;&lt;div&gt;&lt;br&gt;&lt;/div&gt;&lt;div&gt;&lt;br&gt;&lt;/div&gt;&lt;div&gt;&lt;br&gt;&lt;/div&gt;&lt;div&gt;&lt;br&gt;&lt;/div&gt;&lt;div&gt;&lt;br&gt;&lt;/div&gt;&lt;div&gt;&lt;br&gt;&lt;/div&gt;&lt;div&gt;&lt;br&gt;&lt;/div&gt;&lt;div&gt;&lt;br&gt;&lt;/div&gt;" style="rounded=0;whiteSpace=wrap;html=1;" vertex="1" parent="n8brzZh167pFlXIu-bxO-78">
          <mxGeometry width="660" height="500" as="geometry" />
        </mxCell>
        <mxCell id="n8brzZh167pFlXIu-bxO-80" style="edgeStyle=orthogonalEdgeStyle;rounded=0;orthogonalLoop=1;jettySize=auto;html=1;entryX=0.5;entryY=0;entryDx=0;entryDy=0;" edge="1" parent="n8brzZh167pFlXIu-bxO-78" source="n8brzZh167pFlXIu-bxO-81" target="n8brzZh167pFlXIu-bxO-93">
          <mxGeometry relative="1" as="geometry" />
        </mxCell>
        <mxCell id="n8brzZh167pFlXIu-bxO-81" value="Decision" style="rounded=0;whiteSpace=wrap;html=1;" vertex="1" parent="n8brzZh167pFlXIu-bxO-78">
          <mxGeometry x="41.5" y="20" width="120" height="60" as="geometry" />
        </mxCell>
        <mxCell id="n8brzZh167pFlXIu-bxO-82" style="edgeStyle=orthogonalEdgeStyle;rounded=0;orthogonalLoop=1;jettySize=auto;html=1;entryX=0.5;entryY=1;entryDx=0;entryDy=0;" edge="1" parent="n8brzZh167pFlXIu-bxO-78" source="n8brzZh167pFlXIu-bxO-83" target="n8brzZh167pFlXIu-bxO-93">
          <mxGeometry relative="1" as="geometry" />
        </mxCell>
        <mxCell id="n8brzZh167pFlXIu-bxO-83" value="Decision" style="rounded=0;whiteSpace=wrap;html=1;" vertex="1" parent="n8brzZh167pFlXIu-bxO-78">
          <mxGeometry x="41.5" y="100" width="120" height="60" as="geometry" />
        </mxCell>
        <mxCell id="n8brzZh167pFlXIu-bxO-84" style="edgeStyle=orthogonalEdgeStyle;rounded=0;orthogonalLoop=1;jettySize=auto;html=1;entryX=0.5;entryY=0;entryDx=0;entryDy=0;" edge="1" parent="n8brzZh167pFlXIu-bxO-78" source="n8brzZh167pFlXIu-bxO-85" target="n8brzZh167pFlXIu-bxO-96">
          <mxGeometry relative="1" as="geometry" />
        </mxCell>
        <mxCell id="n8brzZh167pFlXIu-bxO-85" value="Decision" style="rounded=0;whiteSpace=wrap;html=1;" vertex="1" parent="n8brzZh167pFlXIu-bxO-78">
          <mxGeometry x="41.5" y="180" width="120" height="60" as="geometry" />
        </mxCell>
        <mxCell id="n8brzZh167pFlXIu-bxO-86" style="edgeStyle=orthogonalEdgeStyle;rounded=0;orthogonalLoop=1;jettySize=auto;html=1;entryX=0.5;entryY=1;entryDx=0;entryDy=0;" edge="1" parent="n8brzZh167pFlXIu-bxO-78" source="n8brzZh167pFlXIu-bxO-87" target="n8brzZh167pFlXIu-bxO-96">
          <mxGeometry relative="1" as="geometry" />
        </mxCell>
        <mxCell id="n8brzZh167pFlXIu-bxO-87" value="Decision" style="rounded=0;whiteSpace=wrap;html=1;" vertex="1" parent="n8brzZh167pFlXIu-bxO-78">
          <mxGeometry x="41.5" y="260" width="120" height="60" as="geometry" />
        </mxCell>
        <mxCell id="n8brzZh167pFlXIu-bxO-88" style="edgeStyle=orthogonalEdgeStyle;rounded=0;orthogonalLoop=1;jettySize=auto;html=1;entryX=0.5;entryY=0;entryDx=0;entryDy=0;" edge="1" parent="n8brzZh167pFlXIu-bxO-78" source="n8brzZh167pFlXIu-bxO-89" target="n8brzZh167pFlXIu-bxO-99">
          <mxGeometry relative="1" as="geometry" />
        </mxCell>
        <mxCell id="n8brzZh167pFlXIu-bxO-89" value="Decision" style="rounded=0;whiteSpace=wrap;html=1;" vertex="1" parent="n8brzZh167pFlXIu-bxO-78">
          <mxGeometry x="41.5" y="340" width="120" height="60" as="geometry" />
        </mxCell>
        <mxCell id="n8brzZh167pFlXIu-bxO-90" style="edgeStyle=orthogonalEdgeStyle;rounded=0;orthogonalLoop=1;jettySize=auto;html=1;entryX=0.5;entryY=1;entryDx=0;entryDy=0;" edge="1" parent="n8brzZh167pFlXIu-bxO-78" source="n8brzZh167pFlXIu-bxO-91" target="n8brzZh167pFlXIu-bxO-99">
          <mxGeometry relative="1" as="geometry" />
        </mxCell>
        <mxCell id="n8brzZh167pFlXIu-bxO-91" value="Decision" style="rounded=0;whiteSpace=wrap;html=1;" vertex="1" parent="n8brzZh167pFlXIu-bxO-78">
          <mxGeometry x="41.5" y="420" width="120" height="60" as="geometry" />
        </mxCell>
        <mxCell id="n8brzZh167pFlXIu-bxO-92" value="" style="group" vertex="1" connectable="0" parent="n8brzZh167pFlXIu-bxO-78">
          <mxGeometry x="211.5" y="50" width="80" height="80" as="geometry" />
        </mxCell>
        <mxCell id="n8brzZh167pFlXIu-bxO-93" value="" style="rhombus;whiteSpace=wrap;html=1;" vertex="1" parent="n8brzZh167pFlXIu-bxO-92">
          <mxGeometry width="80" height="80" as="geometry" />
        </mxCell>
        <mxCell id="n8brzZh167pFlXIu-bxO-94" value="" style="verticalLabelPosition=bottom;verticalAlign=top;html=1;shape=mxgraph.basic.x" vertex="1" parent="n8brzZh167pFlXIu-bxO-92">
          <mxGeometry x="25" y="25" width="30" height="30" as="geometry" />
        </mxCell>
        <mxCell id="n8brzZh167pFlXIu-bxO-95" value="" style="group" vertex="1" connectable="0" parent="n8brzZh167pFlXIu-bxO-78">
          <mxGeometry x="211.5" y="210" width="80" height="80" as="geometry" />
        </mxCell>
        <mxCell id="n8brzZh167pFlXIu-bxO-96" value="" style="rhombus;whiteSpace=wrap;html=1;" vertex="1" parent="n8brzZh167pFlXIu-bxO-95">
          <mxGeometry width="80" height="80" as="geometry" />
        </mxCell>
        <mxCell id="n8brzZh167pFlXIu-bxO-97" value="" style="verticalLabelPosition=bottom;verticalAlign=top;html=1;shape=mxgraph.basic.x" vertex="1" parent="n8brzZh167pFlXIu-bxO-95">
          <mxGeometry x="25" y="25" width="30" height="30" as="geometry" />
        </mxCell>
        <mxCell id="n8brzZh167pFlXIu-bxO-98" value="" style="group" vertex="1" connectable="0" parent="n8brzZh167pFlXIu-bxO-78">
          <mxGeometry x="211.5" y="370" width="80" height="80" as="geometry" />
        </mxCell>
        <mxCell id="n8brzZh167pFlXIu-bxO-99" value="" style="rhombus;whiteSpace=wrap;html=1;" vertex="1" parent="n8brzZh167pFlXIu-bxO-98">
          <mxGeometry width="80" height="80" as="geometry" />
        </mxCell>
        <mxCell id="n8brzZh167pFlXIu-bxO-100" value="" style="verticalLabelPosition=bottom;verticalAlign=top;html=1;shape=mxgraph.basic.x" vertex="1" parent="n8brzZh167pFlXIu-bxO-98">
          <mxGeometry x="25" y="25" width="30" height="30" as="geometry" />
        </mxCell>
        <mxCell id="n8brzZh167pFlXIu-bxO-101" value="" style="group" vertex="1" connectable="0" parent="n8brzZh167pFlXIu-bxO-78">
          <mxGeometry x="301.5" y="130" width="80" height="90" as="geometry" />
        </mxCell>
        <mxCell id="n8brzZh167pFlXIu-bxO-102" value="" style="rhombus;whiteSpace=wrap;html=1;" vertex="1" parent="n8brzZh167pFlXIu-bxO-101">
          <mxGeometry width="80" height="80" as="geometry" />
        </mxCell>
        <mxCell id="n8brzZh167pFlXIu-bxO-103" value="+" style="text;html=1;align=center;verticalAlign=middle;resizable=0;points=[];autosize=1;strokeColor=none;fillColor=none;fontSize=69;" vertex="1" parent="n8brzZh167pFlXIu-bxO-101">
          <mxGeometry x="10" y="-10" width="60" height="100" as="geometry" />
        </mxCell>
        <mxCell id="n8brzZh167pFlXIu-bxO-104" value="" style="group" vertex="1" connectable="0" parent="n8brzZh167pFlXIu-bxO-78">
          <mxGeometry x="301.5" y="290" width="80" height="95" as="geometry" />
        </mxCell>
        <mxCell id="n8brzZh167pFlXIu-bxO-105" value="" style="rhombus;whiteSpace=wrap;html=1;" vertex="1" parent="n8brzZh167pFlXIu-bxO-104">
          <mxGeometry width="80" height="80" as="geometry" />
        </mxCell>
        <mxCell id="n8brzZh167pFlXIu-bxO-106" value="+" style="text;html=1;align=center;verticalAlign=middle;resizable=0;points=[];autosize=1;strokeColor=none;fillColor=none;fontSize=69;" vertex="1" parent="n8brzZh167pFlXIu-bxO-104">
          <mxGeometry x="10" y="-10" width="60" height="100" as="geometry" />
        </mxCell>
        <mxCell id="n8brzZh167pFlXIu-bxO-107" style="edgeStyle=orthogonalEdgeStyle;rounded=0;orthogonalLoop=1;jettySize=auto;html=1;entryX=0.5;entryY=0;entryDx=0;entryDy=0;" edge="1" parent="n8brzZh167pFlXIu-bxO-78" source="n8brzZh167pFlXIu-bxO-93" target="n8brzZh167pFlXIu-bxO-102">
          <mxGeometry relative="1" as="geometry" />
        </mxCell>
        <mxCell id="n8brzZh167pFlXIu-bxO-108" style="edgeStyle=orthogonalEdgeStyle;rounded=0;orthogonalLoop=1;jettySize=auto;html=1;entryX=0.5;entryY=1;entryDx=0;entryDy=0;" edge="1" parent="n8brzZh167pFlXIu-bxO-78" source="n8brzZh167pFlXIu-bxO-96" target="n8brzZh167pFlXIu-bxO-102">
          <mxGeometry relative="1" as="geometry" />
        </mxCell>
        <mxCell id="n8brzZh167pFlXIu-bxO-109" style="edgeStyle=orthogonalEdgeStyle;rounded=0;orthogonalLoop=1;jettySize=auto;html=1;entryX=0.5;entryY=1;entryDx=0;entryDy=0;" edge="1" parent="n8brzZh167pFlXIu-bxO-78" source="n8brzZh167pFlXIu-bxO-99" target="n8brzZh167pFlXIu-bxO-105">
          <mxGeometry relative="1" as="geometry" />
        </mxCell>
        <mxCell id="n8brzZh167pFlXIu-bxO-110" style="edgeStyle=orthogonalEdgeStyle;rounded=0;orthogonalLoop=1;jettySize=auto;html=1;entryX=0.5;entryY=0;entryDx=0;entryDy=0;" edge="1" parent="n8brzZh167pFlXIu-bxO-78" source="n8brzZh167pFlXIu-bxO-96" target="n8brzZh167pFlXIu-bxO-105">
          <mxGeometry relative="1" as="geometry" />
        </mxCell>
        <mxCell id="n8brzZh167pFlXIu-bxO-111" value="" style="group" vertex="1" connectable="0" parent="n8brzZh167pFlXIu-bxO-78">
          <mxGeometry x="401.5" y="210" width="80" height="90" as="geometry" />
        </mxCell>
        <mxCell id="n8brzZh167pFlXIu-bxO-112" value="" style="rhombus;whiteSpace=wrap;html=1;" vertex="1" parent="n8brzZh167pFlXIu-bxO-111">
          <mxGeometry width="80" height="80" as="geometry" />
        </mxCell>
        <mxCell id="n8brzZh167pFlXIu-bxO-113" value="+" style="text;html=1;align=center;verticalAlign=middle;resizable=0;points=[];autosize=1;strokeColor=none;fillColor=none;fontSize=69;" vertex="1" parent="n8brzZh167pFlXIu-bxO-111">
          <mxGeometry x="10" y="-10" width="60" height="100" as="geometry" />
        </mxCell>
        <mxCell id="n8brzZh167pFlXIu-bxO-114" style="edgeStyle=orthogonalEdgeStyle;rounded=0;orthogonalLoop=1;jettySize=auto;html=1;entryX=0.5;entryY=0;entryDx=0;entryDy=0;" edge="1" parent="n8brzZh167pFlXIu-bxO-78" source="n8brzZh167pFlXIu-bxO-102" target="n8brzZh167pFlXIu-bxO-112">
          <mxGeometry relative="1" as="geometry" />
        </mxCell>
        <mxCell id="n8brzZh167pFlXIu-bxO-115" style="edgeStyle=orthogonalEdgeStyle;rounded=0;orthogonalLoop=1;jettySize=auto;html=1;entryX=0.5;entryY=1;entryDx=0;entryDy=0;" edge="1" parent="n8brzZh167pFlXIu-bxO-78" source="n8brzZh167pFlXIu-bxO-105" target="n8brzZh167pFlXIu-bxO-112">
          <mxGeometry relative="1" as="geometry" />
        </mxCell>
        <mxCell id="n8brzZh167pFlXIu-bxO-116" value="Arrive at conclusion" style="rounded=0;whiteSpace=wrap;html=1;" vertex="1" parent="n8brzZh167pFlXIu-bxO-78">
          <mxGeometry x="508.5" y="220" width="120" height="60" as="geometry" />
        </mxCell>
        <mxCell id="n8brzZh167pFlXIu-bxO-117" value="" style="endArrow=classic;html=1;rounded=0;exitX=1;exitY=0.5;exitDx=0;exitDy=0;entryX=0;entryY=0.5;entryDx=0;entryDy=0;" edge="1" parent="n8brzZh167pFlXIu-bxO-78" source="n8brzZh167pFlXIu-bxO-112" target="n8brzZh167pFlXIu-bxO-116">
          <mxGeometry width="50" height="50" relative="1" as="geometry">
            <mxPoint x="371.5" y="310" as="sourcePoint" />
            <mxPoint x="421.5" y="260" as="targetPoint" />
          </mxGeometry>
        </mxCell>
        <mxCell id="n8brzZh167pFlXIu-bxO-118" value="" style="endArrow=none;dashed=1;html=1;dashPattern=1 3;strokeWidth=2;rounded=0;exitX=0;exitY=0;exitDx=0;exitDy=0;entryX=0.5;entryY=1;entryDx=0;entryDy=0;" edge="1" parent="1" source="n8brzZh167pFlXIu-bxO-79" target="n8brzZh167pFlXIu-bxO-120">
          <mxGeometry width="50" height="50" relative="1" as="geometry">
            <mxPoint x="430" y="1750" as="sourcePoint" />
            <mxPoint x="400" y="1470" as="targetPoint" />
          </mxGeometry>
        </mxCell>
        <mxCell id="n8brzZh167pFlXIu-bxO-119" value="" style="endArrow=none;dashed=1;html=1;dashPattern=1 3;strokeWidth=2;rounded=0;exitX=1;exitY=0;exitDx=0;exitDy=0;entryX=0.5;entryY=1;entryDx=0;entryDy=0;" edge="1" parent="1" source="n8brzZh167pFlXIu-bxO-79" target="n8brzZh167pFlXIu-bxO-120">
          <mxGeometry width="50" height="50" relative="1" as="geometry">
            <mxPoint x="430" y="1750" as="sourcePoint" />
            <mxPoint x="400" y="1470" as="targetPoint" />
          </mxGeometry>
        </mxCell>
        <mxCell id="n8brzZh167pFlXIu-bxO-151" value="TypeQuest - Use Case diagram" style="swimlane;whiteSpace=wrap;html=1;" vertex="1" parent="1">
          <mxGeometry x="349" y="1950" width="711" height="490" as="geometry" />
        </mxCell>
        <mxCell id="n8brzZh167pFlXIu-bxO-154" value="User" style="shape=umlActor;verticalLabelPosition=bottom;verticalAlign=top;html=1;outlineConnect=0;" vertex="1" parent="n8brzZh167pFlXIu-bxO-151">
          <mxGeometry x="21" y="155" width="30" height="60" as="geometry" />
        </mxCell>
        <mxCell id="n8brzZh167pFlXIu-bxO-158" value="retrieve questions from GitHub repository" style="ellipse;whiteSpace=wrap;html=1;" vertex="1" parent="n8brzZh167pFlXIu-bxO-151">
          <mxGeometry x="391" y="95" width="120" height="80" as="geometry" />
        </mxCell>
        <mxCell id="n8brzZh167pFlXIu-bxO-164" value="" style="edgeStyle=orthogonalEdgeStyle;rounded=0;orthogonalLoop=1;jettySize=auto;html=1;" edge="1" parent="n8brzZh167pFlXIu-bxO-151" source="n8brzZh167pFlXIu-bxO-161" target="n8brzZh167pFlXIu-bxO-163">
          <mxGeometry relative="1" as="geometry" />
        </mxCell>
        <mxCell id="n8brzZh167pFlXIu-bxO-168" value="" style="edgeStyle=orthogonalEdgeStyle;rounded=0;orthogonalLoop=1;jettySize=auto;html=1;" edge="1" parent="n8brzZh167pFlXIu-bxO-151" source="n8brzZh167pFlXIu-bxO-161" target="n8brzZh167pFlXIu-bxO-167">
          <mxGeometry relative="1" as="geometry" />
        </mxCell>
        <mxCell id="n8brzZh167pFlXIu-bxO-161" value="process user inputs" style="ellipse;whiteSpace=wrap;html=1;" vertex="1" parent="n8brzZh167pFlXIu-bxO-151">
          <mxGeometry x="326" y="200" width="120" height="80" as="geometry" />
        </mxCell>
        <mxCell id="n8brzZh167pFlXIu-bxO-163" value="verify user inputs" style="ellipse;whiteSpace=wrap;html=1;" vertex="1" parent="n8brzZh167pFlXIu-bxO-151">
          <mxGeometry x="526" y="200" width="120" height="80" as="geometry" />
        </mxCell>
        <mxCell id="n8brzZh167pFlXIu-bxO-167" value="Update GUI" style="ellipse;whiteSpace=wrap;html=1;" vertex="1" parent="n8brzZh167pFlXIu-bxO-151">
          <mxGeometry x="326" y="360" width="120" height="80" as="geometry" />
        </mxCell>
        <mxCell id="n8brzZh167pFlXIu-bxO-166" value="&amp;lt;&amp;lt;include&amp;gt;&amp;gt;" style="edgeLabel;html=1;align=center;verticalAlign=middle;resizable=0;points=[];" vertex="1" connectable="0" parent="n8brzZh167pFlXIu-bxO-151">
          <mxGeometry x="481.9971428571431" y="257" as="geometry">
            <mxPoint x="1" y="-4" as="offset" />
          </mxGeometry>
        </mxCell>
        <mxCell id="n8brzZh167pFlXIu-bxO-165" value="&amp;lt;&amp;lt;include&amp;gt;&amp;gt;" style="edgeLabel;html=1;align=center;verticalAlign=middle;resizable=0;points=[];" vertex="1" connectable="0" parent="n8brzZh167pFlXIu-bxO-151">
          <mxGeometry x="280.9971428571431" y="250" as="geometry" />
        </mxCell>
        <mxCell id="n8brzZh167pFlXIu-bxO-169" value="&amp;lt;&amp;lt;include&amp;gt;&amp;gt;" style="edgeLabel;html=1;align=center;verticalAlign=middle;resizable=0;points=[];" vertex="1" connectable="0" parent="n8brzZh167pFlXIu-bxO-151">
          <mxGeometry x="385.9971428571431" y="310" as="geometry" />
        </mxCell>
        <mxCell id="n8brzZh167pFlXIu-bxO-159" value="" style="edgeStyle=orthogonalEdgeStyle;rounded=0;orthogonalLoop=1;jettySize=auto;html=1;" edge="1" parent="1" source="n8brzZh167pFlXIu-bxO-153" target="n8brzZh167pFlXIu-bxO-158">
          <mxGeometry relative="1" as="geometry" />
        </mxCell>
        <mxCell id="n8brzZh167pFlXIu-bxO-160" value="&amp;lt;&amp;lt;include&amp;gt;&amp;gt;" style="edgeLabel;html=1;align=center;verticalAlign=middle;resizable=0;points=[];" vertex="1" connectable="0" parent="n8brzZh167pFlXIu-bxO-159">
          <mxGeometry x="-0.267" relative="1" as="geometry">
            <mxPoint x="11" y="-10" as="offset" />
          </mxGeometry>
        </mxCell>
        <mxCell id="n8brzZh167pFlXIu-bxO-153" value="View questions" style="ellipse;whiteSpace=wrap;html=1;" vertex="1" parent="1">
          <mxGeometry x="475" y="2045" width="120" height="80" as="geometry" />
        </mxCell>
        <mxCell id="n8brzZh167pFlXIu-bxO-162" value="" style="edgeStyle=orthogonalEdgeStyle;rounded=0;orthogonalLoop=1;jettySize=auto;html=1;" edge="1" parent="1" source="n8brzZh167pFlXIu-bxO-156" target="n8brzZh167pFlXIu-bxO-161">
          <mxGeometry relative="1" as="geometry" />
        </mxCell>
        <mxCell id="n8brzZh167pFlXIu-bxO-156" value="Request results" style="ellipse;whiteSpace=wrap;html=1;" vertex="1" parent="1">
          <mxGeometry x="475" y="2150" width="120" height="80" as="geometry" />
        </mxCell>
        <mxCell id="n8brzZh167pFlXIu-bxO-170" value="" style="endArrow=none;html=1;rounded=0;exitX=0.5;exitY=0.5;exitDx=0;exitDy=0;exitPerimeter=0;entryX=0;entryY=0.5;entryDx=0;entryDy=0;" edge="1" parent="1" source="n8brzZh167pFlXIu-bxO-154" target="n8brzZh167pFlXIu-bxO-156">
          <mxGeometry width="50" height="50" relative="1" as="geometry">
            <mxPoint x="630" y="2310" as="sourcePoint" />
            <mxPoint x="680" y="2260" as="targetPoint" />
          </mxGeometry>
        </mxCell>
        <mxCell id="n8brzZh167pFlXIu-bxO-171" value="" style="endArrow=none;html=1;rounded=0;exitX=0.5;exitY=0.5;exitDx=0;exitDy=0;exitPerimeter=0;entryX=0;entryY=0.5;entryDx=0;entryDy=0;" edge="1" parent="1" source="n8brzZh167pFlXIu-bxO-154" target="n8brzZh167pFlXIu-bxO-153">
          <mxGeometry width="50" height="50" relative="1" as="geometry">
            <mxPoint x="640" y="2320" as="sourcePoint" />
            <mxPoint x="690" y="2270" as="targetPoint" />
          </mxGeometry>
        </mxCell>
        <mxCell id="n8brzZh167pFlXIu-bxO-172" value="TypeQuest - Class Diagram" style="swimlane;whiteSpace=wrap;html=1;" vertex="1" parent="1">
          <mxGeometry x="349" y="2510" width="531" height="400" as="geometry" />
        </mxCell>
        <mxCell id="n8brzZh167pFlXIu-bxO-173" value="Enneagram" style="swimlane;fontStyle=1;align=center;verticalAlign=top;childLayout=stackLayout;horizontal=1;startSize=26;horizontalStack=0;resizeParent=1;resizeParentMax=0;resizeLast=0;collapsible=1;marginBottom=0;whiteSpace=wrap;html=1;" vertex="1" parent="n8brzZh167pFlXIu-bxO-172">
          <mxGeometry x="21.5" y="70" width="160" height="138" as="geometry" />
        </mxCell>
        <mxCell id="n8brzZh167pFlXIu-bxO-179" value="+ name: String" style="text;strokeColor=none;fillColor=none;align=left;verticalAlign=top;spacingLeft=4;spacingRight=4;overflow=hidden;rotatable=0;points=[[0,0.5],[1,0.5]];portConstraint=eastwest;whiteSpace=wrap;html=1;" vertex="1" parent="n8brzZh167pFlXIu-bxO-173">
          <mxGeometry y="26" width="160" height="26" as="geometry" />
        </mxCell>
        <mxCell id="n8brzZh167pFlXIu-bxO-174" value="+ description: String" style="text;strokeColor=none;fillColor=none;align=left;verticalAlign=top;spacingLeft=4;spacingRight=4;overflow=hidden;rotatable=0;points=[[0,0.5],[1,0.5]];portConstraint=eastwest;whiteSpace=wrap;html=1;" vertex="1" parent="n8brzZh167pFlXIu-bxO-173">
          <mxGeometry y="52" width="160" height="26" as="geometry" />
        </mxCell>
        <mxCell id="n8brzZh167pFlXIu-bxO-175" value="" style="line;strokeWidth=1;fillColor=none;align=left;verticalAlign=middle;spacingTop=-1;spacingLeft=3;spacingRight=3;rotatable=0;labelPosition=right;points=[];portConstraint=eastwest;strokeColor=inherit;" vertex="1" parent="n8brzZh167pFlXIu-bxO-173">
          <mxGeometry y="78" width="160" height="8" as="geometry" />
        </mxCell>
        <mxCell id="n8brzZh167pFlXIu-bxO-202" value="+ calculate(input): string" style="text;strokeColor=none;fillColor=none;align=left;verticalAlign=top;spacingLeft=4;spacingRight=4;overflow=hidden;rotatable=0;points=[[0,0.5],[1,0.5]];portConstraint=eastwest;whiteSpace=wrap;html=1;" vertex="1" parent="n8brzZh167pFlXIu-bxO-173">
          <mxGeometry y="86" width="160" height="26" as="geometry" />
        </mxCell>
        <mxCell id="n8brzZh167pFlXIu-bxO-176" value="- recursiveEliminateTypes()" style="text;strokeColor=none;fillColor=none;align=left;verticalAlign=top;spacingLeft=4;spacingRight=4;overflow=hidden;rotatable=0;points=[[0,0.5],[1,0.5]];portConstraint=eastwest;whiteSpace=wrap;html=1;" vertex="1" parent="n8brzZh167pFlXIu-bxO-173">
          <mxGeometry y="112" width="160" height="26" as="geometry" />
        </mxCell>
        <mxCell id="n8brzZh167pFlXIu-bxO-180" value="MBTI Type" style="swimlane;fontStyle=1;align=center;verticalAlign=top;childLayout=stackLayout;horizontal=1;startSize=26;horizontalStack=0;resizeParent=1;resizeParentMax=0;resizeLast=0;collapsible=1;marginBottom=0;whiteSpace=wrap;html=1;" vertex="1" parent="n8brzZh167pFlXIu-bxO-172">
          <mxGeometry x="351" y="160" width="160" height="138" as="geometry" />
        </mxCell>
        <mxCell id="n8brzZh167pFlXIu-bxO-181" value="+ name: String" style="text;strokeColor=none;fillColor=none;align=left;verticalAlign=top;spacingLeft=4;spacingRight=4;overflow=hidden;rotatable=0;points=[[0,0.5],[1,0.5]];portConstraint=eastwest;whiteSpace=wrap;html=1;" vertex="1" parent="n8brzZh167pFlXIu-bxO-180">
          <mxGeometry y="26" width="160" height="26" as="geometry" />
        </mxCell>
        <mxCell id="n8brzZh167pFlXIu-bxO-182" value="+ description: String" style="text;strokeColor=none;fillColor=none;align=left;verticalAlign=top;spacingLeft=4;spacingRight=4;overflow=hidden;rotatable=0;points=[[0,0.5],[1,0.5]];portConstraint=eastwest;whiteSpace=wrap;html=1;" vertex="1" parent="n8brzZh167pFlXIu-bxO-180">
          <mxGeometry y="52" width="160" height="26" as="geometry" />
        </mxCell>
        <mxCell id="n8brzZh167pFlXIu-bxO-183" value="" style="line;strokeWidth=1;fillColor=none;align=left;verticalAlign=middle;spacingTop=-1;spacingLeft=3;spacingRight=3;rotatable=0;labelPosition=right;points=[];portConstraint=eastwest;strokeColor=inherit;" vertex="1" parent="n8brzZh167pFlXIu-bxO-180">
          <mxGeometry y="78" width="160" height="8" as="geometry" />
        </mxCell>
        <mxCell id="n8brzZh167pFlXIu-bxO-205" value="+ calculate(input): string" style="text;strokeColor=none;fillColor=none;align=left;verticalAlign=top;spacingLeft=4;spacingRight=4;overflow=hidden;rotatable=0;points=[[0,0.5],[1,0.5]];portConstraint=eastwest;whiteSpace=wrap;html=1;" vertex="1" parent="n8brzZh167pFlXIu-bxO-180">
          <mxGeometry y="86" width="160" height="26" as="geometry" />
        </mxCell>
        <mxCell id="n8brzZh167pFlXIu-bxO-184" value="- recursiveEliminateTypes()" style="text;strokeColor=none;fillColor=none;align=left;verticalAlign=top;spacingLeft=4;spacingRight=4;overflow=hidden;rotatable=0;points=[[0,0.5],[1,0.5]];portConstraint=eastwest;whiteSpace=wrap;html=1;" vertex="1" parent="n8brzZh167pFlXIu-bxO-180">
          <mxGeometry y="112" width="160" height="26" as="geometry" />
        </mxCell>
        <mxCell id="n8brzZh167pFlXIu-bxO-186" value="Cognitive Functions" style="swimlane;fontStyle=1;align=center;verticalAlign=top;childLayout=stackLayout;horizontal=1;startSize=26;horizontalStack=0;resizeParent=1;resizeParentMax=0;resizeLast=0;collapsible=1;marginBottom=0;whiteSpace=wrap;html=1;" vertex="1" parent="n8brzZh167pFlXIu-bxO-172">
          <mxGeometry x="21" y="240" width="160" height="138" as="geometry" />
        </mxCell>
        <mxCell id="n8brzZh167pFlXIu-bxO-187" value="+ name: String" style="text;strokeColor=none;fillColor=none;align=left;verticalAlign=top;spacingLeft=4;spacingRight=4;overflow=hidden;rotatable=0;points=[[0,0.5],[1,0.5]];portConstraint=eastwest;whiteSpace=wrap;html=1;" vertex="1" parent="n8brzZh167pFlXIu-bxO-186">
          <mxGeometry y="26" width="160" height="26" as="geometry" />
        </mxCell>
        <mxCell id="n8brzZh167pFlXIu-bxO-188" value="+ description: String" style="text;strokeColor=none;fillColor=none;align=left;verticalAlign=top;spacingLeft=4;spacingRight=4;overflow=hidden;rotatable=0;points=[[0,0.5],[1,0.5]];portConstraint=eastwest;whiteSpace=wrap;html=1;" vertex="1" parent="n8brzZh167pFlXIu-bxO-186">
          <mxGeometry y="52" width="160" height="26" as="geometry" />
        </mxCell>
        <mxCell id="n8brzZh167pFlXIu-bxO-189" value="" style="line;strokeWidth=1;fillColor=none;align=left;verticalAlign=middle;spacingTop=-1;spacingLeft=3;spacingRight=3;rotatable=0;labelPosition=right;points=[];portConstraint=eastwest;strokeColor=inherit;" vertex="1" parent="n8brzZh167pFlXIu-bxO-186">
          <mxGeometry y="78" width="160" height="8" as="geometry" />
        </mxCell>
        <mxCell id="n8brzZh167pFlXIu-bxO-204" value="+ calculate(input): string[]" style="text;strokeColor=none;fillColor=none;align=left;verticalAlign=top;spacingLeft=4;spacingRight=4;overflow=hidden;rotatable=0;points=[[0,0.5],[1,0.5]];portConstraint=eastwest;whiteSpace=wrap;html=1;" vertex="1" parent="n8brzZh167pFlXIu-bxO-186">
          <mxGeometry y="86" width="160" height="26" as="geometry" />
        </mxCell>
        <mxCell id="n8brzZh167pFlXIu-bxO-190" value="- recursiveEliminateTypes()" style="text;strokeColor=none;fillColor=none;align=left;verticalAlign=top;spacingLeft=4;spacingRight=4;overflow=hidden;rotatable=0;points=[[0,0.5],[1,0.5]];portConstraint=eastwest;whiteSpace=wrap;html=1;" vertex="1" parent="n8brzZh167pFlXIu-bxO-186">
          <mxGeometry y="112" width="160" height="26" as="geometry" />
        </mxCell>
        <mxCell id="n8brzZh167pFlXIu-bxO-192" value="" style="edgeStyle=entityRelationEdgeStyle;fontSize=12;html=1;endArrow=ERoneToMany;rounded=0;exitX=0;exitY=0.5;exitDx=0;exitDy=0;entryX=1;entryY=0.5;entryDx=0;entryDy=0;" edge="1" parent="n8brzZh167pFlXIu-bxO-172" source="n8brzZh167pFlXIu-bxO-205" target="n8brzZh167pFlXIu-bxO-188">
          <mxGeometry width="100" height="100" relative="1" as="geometry">
            <mxPoint x="301" y="160" as="sourcePoint" />
            <mxPoint x="401" y="60" as="targetPoint" />
          </mxGeometry>
        </mxCell>
        <mxCell id="n8brzZh167pFlXIu-bxO-193" value="*..1" style="edgeLabel;html=1;align=center;verticalAlign=middle;resizable=0;points=[];" vertex="1" connectable="0" parent="n8brzZh167pFlXIu-bxO-192">
          <mxGeometry x="-0.846" relative="1" as="geometry">
            <mxPoint y="-10" as="offset" />
          </mxGeometry>
        </mxCell>
        <mxCell id="n8brzZh167pFlXIu-bxO-197" value="4" style="edgeLabel;html=1;align=center;verticalAlign=middle;resizable=0;points=[];" vertex="1" connectable="0" parent="n8brzZh167pFlXIu-bxO-192">
          <mxGeometry x="0.82" y="-5" relative="1" as="geometry">
            <mxPoint x="2" y="-4" as="offset" />
          </mxGeometry>
        </mxCell>
        <mxCell id="n8brzZh167pFlXIu-bxO-214" value="" style="edgeStyle=entityRelationEdgeStyle;fontSize=12;html=1;endArrow=ERmany;startArrow=ERmany;rounded=0;exitX=1;exitY=0.5;exitDx=0;exitDy=0;entryX=0;entryY=0.5;entryDx=0;entryDy=0;" edge="1" parent="n8brzZh167pFlXIu-bxO-172" source="n8brzZh167pFlXIu-bxO-174" target="n8brzZh167pFlXIu-bxO-181">
          <mxGeometry width="100" height="100" relative="1" as="geometry">
            <mxPoint x="311" y="220" as="sourcePoint" />
            <mxPoint x="411" y="120" as="targetPoint" />
          </mxGeometry>
        </mxCell>
        <mxCell id="n8brzZh167pFlXIu-bxO-215" value="1..*" style="edgeLabel;html=1;align=center;verticalAlign=middle;resizable=0;points=[];" vertex="1" connectable="0" parent="n8brzZh167pFlXIu-bxO-214">
          <mxGeometry x="-0.7836" y="3" relative="1" as="geometry">
            <mxPoint y="-10" as="offset" />
          </mxGeometry>
        </mxCell>
        <mxCell id="n8brzZh167pFlXIu-bxO-216" value="*..1" style="edgeLabel;html=1;align=center;verticalAlign=middle;resizable=0;points=[];" vertex="1" connectable="0" parent="n8brzZh167pFlXIu-bxO-214">
          <mxGeometry x="0.7905" y="1" relative="1" as="geometry">
            <mxPoint y="-10" as="offset" />
          </mxGeometry>
        </mxCell>
        <mxCell id="n8brzZh167pFlXIu-bxO-206" value="&lt;div&gt;Key&lt;/div&gt;&lt;div&gt;&lt;br&gt;&lt;/div&gt;&lt;div&gt;&lt;br&gt;&lt;/div&gt;&lt;div&gt;&lt;br&gt;&lt;/div&gt;&lt;div&gt;&lt;br&gt;&lt;/div&gt;&lt;div&gt;&lt;br&gt;&lt;/div&gt;&lt;div&gt;&lt;br&gt;&lt;/div&gt;&lt;div&gt;&lt;br&gt;&lt;/div&gt;&lt;div&gt;&lt;br&gt;&lt;/div&gt;&lt;div&gt;&lt;br&gt;&lt;/div&gt;&lt;div&gt;&lt;br&gt;&lt;/div&gt;&lt;div&gt;&lt;br&gt;&lt;/div&gt;&lt;div&gt;&lt;br&gt;&lt;/div&gt;&lt;div&gt;&lt;br&gt;&lt;/div&gt;&lt;div&gt;&lt;br&gt;&lt;/div&gt;&lt;div&gt;&lt;br&gt;&lt;/div&gt;&lt;div&gt;&lt;br&gt;&lt;/div&gt;&lt;div&gt;&lt;br&gt;&lt;/div&gt;&lt;div&gt;&lt;br&gt;&lt;/div&gt;&lt;div&gt;&lt;br&gt;&lt;/div&gt;&lt;div&gt;&lt;br&gt;&lt;/div&gt;&lt;div&gt;&lt;br&gt;&lt;/div&gt;&lt;div&gt;&lt;br&gt;&lt;/div&gt;&lt;div&gt;&lt;br&gt;&lt;/div&gt;&lt;div&gt;&lt;br&gt;&lt;/div&gt;&lt;div&gt;&lt;br&gt;&lt;/div&gt;&lt;div&gt;&lt;br&gt;&lt;/div&gt;" style="rounded=0;whiteSpace=wrap;html=1;fillColor=#dae8fc;strokeColor=#6c8ebf;" vertex="1" parent="1">
          <mxGeometry x="889" y="2510" width="151" height="400" as="geometry" />
        </mxCell>
        <mxCell id="n8brzZh167pFlXIu-bxO-207" value="&lt;b&gt;Rule 1:&lt;/b&gt;&amp;nbsp;&lt;div&gt;Any MBTI Type can have any Enneagram, but each instance of MBTI can only have one associated Enneagram at a time. Users cannot have more than 1 Enneagram type&lt;/div&gt;" style="text;html=1;align=left;verticalAlign=middle;whiteSpace=wrap;rounded=0;" vertex="1" parent="1">
          <mxGeometry x="900" y="2610" width="130" height="30" as="geometry" />
        </mxCell>
        <mxCell id="n8brzZh167pFlXIu-bxO-218" value="&lt;b&gt;Rule 2:&amp;nbsp;&lt;/b&gt;&lt;div&gt;Any Enneagram can have any MBTI type&lt;/div&gt;" style="text;html=1;align=left;verticalAlign=middle;whiteSpace=wrap;rounded=0;" vertex="1" parent="1">
          <mxGeometry x="900" y="2710" width="130" height="30" as="geometry" />
        </mxCell>
        <mxCell id="n8brzZh167pFlXIu-bxO-219" value="&lt;b&gt;Rule 3:&amp;nbsp;&lt;/b&gt;&lt;div&gt;Any MBTI type must have exactly 4 cognitive functions&lt;/div&gt;" style="text;html=1;align=left;verticalAlign=middle;whiteSpace=wrap;rounded=0;fontStyle=0" vertex="1" parent="1">
          <mxGeometry x="900" y="2770" width="130" height="30" as="geometry" />
        </mxCell>
        <mxCell id="n8brzZh167pFlXIu-bxO-220" value="&lt;b&gt;Rule 4:&amp;nbsp;&lt;/b&gt;&lt;div&gt;Each pair of 4 cognitive functions can relate to any MBTI type&lt;/div&gt;" style="text;html=1;align=left;verticalAlign=middle;whiteSpace=wrap;rounded=0;fontStyle=0" vertex="1" parent="1">
          <mxGeometry x="900" y="2840" width="130" height="30" as="geometry" />
        </mxCell>
      </root>
    </mxGraphModel>
  </diagram>
</mxfile>
